<svg width="64" height="64" viewBox="0 0 64 64" fill="none" xmlns="http://www.w3.org/2000/svg">
  <!-- Фоновое пятно -->
  <path d="M12 30C12 18 24 12 38 14C52 16 60 28 56 46C52 58 32 58 20 52C10 46 12 38 12 30Z" fill="#D1C4E9"/>

  <!-- Микрофон -->
  <rect x="26" y="16" width="12" height="18" rx="6" stroke="black" stroke-width="2.5" fill="none"/>
  <path d="M26 22H38" stroke="black" stroke-width="2.5"/>
  <path d="M26 28H38" stroke="black" stroke-width="2.5"/>
  <path d="M32 34V46" stroke="black" stroke-width="2.5" stroke-linecap="round"/>
  <path d="M24 46H40" stroke="black" stroke-width="2.5" stroke-linecap="round"/>

  <!-- Бокал (справа внизу) -->
  <path d="M44 34L50 42H56" stroke="black" stroke-width="2.5" stroke-linecap="round" stroke-linejoin="round"/>
  <path d="M44 34H56" stroke="black" stroke-width="2.5" stroke-linecap="round"/>
  <path d="M50 42V50" stroke="black" stroke-width="2.5" stroke-linecap="round"/>
  <path d="M46 50H54" stroke="black" stroke-width="2.5" stroke-linecap="round"/>

  <!-- Звезды/Искры (атмосфера шоу) -->
  <path d="M16 20L18 24L16 28L14 24L16 20Z" fill="black"/>
  <path d="M50 14L52 18L50 22L48 18L50 14Z" fill="black"/>
  ircle cx="20" cy="40" r="2" fill="black"/>
</svg>
