 <svg viewBox="0 0 64 64">
                <path fill="var(--sun-glow)" d="M10 32c0-12 10-22 22-22s22 10 22 22-10 22-22 22-22-10-22-22z" transform="translate(-2,4) scale(0.9)" opacity="0.6"/>
                <path fill="var(--sun-core)" d="M44 12c5 2 8 8 5 14s-9 8-14 10-12 1-16-2-5-9-2-15 9-9 17-9c3 0 7 1 10 2z" opacity="0.9"/>
                <g fill="none" stroke="currentColor" stroke-width="2.5" stroke-linecap="round" stroke-linejoin="round">
                    <path d="M12 40l8-4 16-2 16 6-4 8H16z"/>
                    <path d="M32 18l12 14H24z"/>
                    <path d="M8 50c4 2 8 0 12-2"/>
                </g>
            </svg>
