<svg width="64" height="64" viewBox="0 0 64 64" fill="none" xmlns="http://www.w3.org/2000/svg">
  <!-- Фоновое пятно -->
  <path d="M8 26C8 16 22 12 36 14C50 16 58 26 54 46C50 60 28 58 18 52C8 46 8 36 8 26Z" fill="#B3E5FC"/>
  
  <!-- Бассейн -->
  <rect x="12" y="24" width="40" height="26" stroke="black" stroke-width="2.5" stroke-linejoin="round"/>
  
  <!-- Лестница -->
  <path d="M36 24V18C36 16 38 14 40 14" stroke="black" stroke-width="2.5" stroke-linecap="round"/>
  <path d="M44 24V18C44 16 42 14 40 14" stroke="black" stroke-width="2.5" stroke-linecap="round"/>
  <path d="M36 28H44" stroke="black" stroke-width="2.5" stroke-linecap="round"/>
  <path d="M36 34H44" stroke="black" stroke-width="2.5" stroke-linecap="round"/>
  
  <!-- Вода -->
  <path d="M18 40C20 38 22 38 24 40C26 42 28 42 30 40C32 38 34 38 36 40C38 42 40 42 42 40C44 38 46 38 48 40" stroke="black" stroke-width="2.5" stroke-linecap="round"/>
  <path d="M18 46C20 44 22 44 24 46C26 48 28 48 30 46C32 44 34 44 36 46C38 48 40 48 42 46C44 44 46 44 48 46" stroke="black" stroke-width="2.5" stroke-linecap="round"/>
</svg>
