          <svg xmlns="http://www.w3.org/2000/svg" viewBox="0 0 64 64" role="img" aria-hidden="true">
                <path fill="#E0F2FF" d="M16 10c6-5 18-6 26-2s14 12 11 22-9 16-18 19-18 2-23-4-6-16 4-25z"/>
                <path fill="#BBDEFB" d="M40 8c4 1 9 4 12 9s3 11 1 16-7 9-12 11-11 2-16 1c6-2 11-6 14-11s4-12 1-18z"/>
                <g fill="none" stroke="#2d8659" stroke-width="2" stroke-linecap="round" stroke-linejoin="round">
                    <ellipse cx="26" cy="22" rx="6" ry="7"/>
                    <path d="M22 25v2a4 4 0 0 0 8 0v-2"/>
                    <path d="M26 29v8"/>
                    <path d="M22 39c3-2 5-2 8 0"/>
                    <path d="M40 18l3-2"/>
                    <path d="M42 24h3"/>
                    <path d="M39 28l2 3"/>
                    <path d="M36 22v5a2.5 2.5 0 1 1-2-2.4"/>
                    <path d="M36 22l3-1v4"/>
                </g>
            </svg>
