<svg viewBox="0 0 64 64">
                <path fill="var(--sun-glow)" d="M10 32c0-12 10-22 22-22s22 10 22 22-10 22-22 22-22-10-22-22z" transform="translate(2,2) scale(0.95)" opacity="0.6"/>
                <path fill="var(--sun-core)" d="M16 10c6-5 18-6 26-2s14 12 11 22-9 16-18 19-18 2-23-4-6-16 4-25z" opacity="0.9"/>
                <g fill="none" stroke="currentColor" stroke-width="2.5" stroke-linecap="round" stroke-linejoin="round">
                    <path d="M8 44h48v-10c0-8-5-12-12-12H20c-7 0-12 4-12 12v10z"/>
                    <path d="M12 34v-6h8v6"/>
                    <path d="M10 50c3-2 6-1 9 1s6 3 9 1 6-1 9-1"/>
                    ircle cx="48" cy="26" r="4"/>
                </g>
            </svg>
