<svg xmlns="http://www.w3.org/2000/svg" viewBox="0 0 64 64">
                <path fill="#FFB74D" d="M48 28c0 10-8 18-18 18s-18-8-18-18 8-18 18-18 18 8 18 18z" opacity="0.6"/>
                <path fill="#E65100" d="M38 8c-5-2-12 0-16 4s-6 10-4 16 8 9 14 8 10-5 11-11-2-15-5-17z" opacity="0.9"/>
                <g fill="none" stroke="#2d8659" stroke-width="2.5" stroke-linecap="round" stroke-linejoin="round">
                    <path d="M16 24l10 24"/>
                    <path d="M20 20l16-8"/>
                    <path d="M36 12c5 8 8 16 8 22"/>
                    <path d="M36 38l8 4-8 4-4-4z" fill="#2d8659" stroke="none"/>
                    <path d="M44 34c0 3-1 5-3 6"/>
                </g>
            </svg>
