<svg width="64" height="64" viewBox="0 0 64 64" fill="none" xmlns="http://www.w3.org/2000/svg">
  <!-- Фоновое пятно -->
  <path d="M10 25C10 15 20 12 35 14C50 16 58 25 54 45C50 58 30 56 18 52C8 48 8 35 10 25Z" fill="#B2DFDB"/>
  
  <!-- Кораблик -->
  <path d="M14 36L18 46H46L50 36H14Z" stroke="black" stroke-width="2.5" stroke-linecap="round" stroke-linejoin="round"/>
  <path d="M22 36V26H42V36" stroke="black" stroke-width="2.5" stroke-linecap="round" stroke-linejoin="round"/>
  <rect x="28" y="20" width="10" height="6" stroke="black" stroke-width="2.5" stroke-linecap="round" stroke-linejoin="round"/>
  
  <!-- Иллюминатор -->
  ircle cx="42" cy="40" r="2" fill="white" stroke="black" stroke-width="2"/>
  
  <!-- Волны -->
  <path d="M8 50C11 48 13 48 16 50C19 52 21 52 24 50C27 48 29 48 32 50C35 52 37 52 40 50C43 48 45 48 48 50C51 52 53 52 56 50" stroke="black" stroke-width="2.5" stroke-linecap="round"/>
  <path d="M10 55C13 53 15 53 18 55C21 57 23 57 26 55C29 53 31 53 34 55C37 57 39 57 42 55C45 53 47 53 50 55C53 57 55 57 58 55" stroke="black" stroke-width="2.5" stroke-linecap="round"/>
</svg>
