<svg xmlns="http://www.w3.org/2000/svg" viewBox="0 0 64 64" width="64" height="64">
  <!-- Фон (солнце) -->
  <path fill="#FFB74D" d="M10 32c0-12 10-22 22-22s22 10 22 22-10 22-22 22-22-10-22-22z" opacity="0.6"/>
  
  <!-- Центр солнца -->
  <path fill="#E65100" d="M44 12c5 2 8 8 5 14s-9 8-14 10-12 1-16-2-5-9-2-15 9-9 17-9c3 0 7 1 10 2z" opacity="0.9"/>
  
  <!-- Лодка (контуры) -->
  <g fill="none" stroke="#2d8659" stroke-width="3" stroke-linecap="round" stroke-linejoin="round">
     <path d="M12 40l8-4 16-2 16 6-4 8H16z"/> 
     <path d="M20 36 L20 24 L36 32"/>
  </g>
</svg>
