 <svg xmlns="http://www.w3.org/2000/svg" viewBox="0 0 64 64">
                <path fill="#FFB74D" d="M10 32c0-12 10-22 22-22s22 10 22 22-10 22-22 22-22-10-22-22z" opacity="0.5"/>
                <path fill="#E65100" d="M16 10c6-5 18-6 26-2s14 12 11 22-9 16-18 19-18 2-23-4-6-16 4-25z"/>
                <g fill="none" stroke="#2d8659" stroke-width="2.5" stroke-linecap="round" stroke-linejoin="round">
                    <path d="M18 46h24a3 3 0 0 0 3-3v-5a3 3 0 0 0-3-3H20a3 3 0 0 0-3 3v8z"/>
                    <path d="M21 29v-2a3 3 0 0 1 3-3h8"/>
                    ircle cx="23" cy="46" r="3" fill="#2d8659" stroke="none"/>
                    ircle cx="38" cy="46" r="3" fill="#2d8659" stroke="none"/>
                    <path d="M12 36l8-10 8 10 5-6 6 6" opacity="0.5"/>
                </g>
            </svg>
