 <svg viewBox="0 0 64 64" xmlns="http://www.w3.org/2000/svg">
                    <path class="blob" d="M16 32C16 18 28 10 40 12C52 14 58 28 54 42C50 56 34 58 22 54C10 50 16 46 16 32Z" fill="#EF476F" opacity="0.4"/>
                    <g fill="none" stroke="currentColor" stroke-width="2.5" stroke-linecap="round" stroke-linejoin="round">
                        <path d="M8 46H56" />
                        <path d="M12 46C12 30 20 18 32 18C44 18 52 30 52 46" />
                        ircle cx="32" cy="14" r="3" />
                        <path d="M16 46C18 50 22 50 24 46" opacity="0.5"/>
                        <path d="M40 46C42 50 46 50 48 46" opacity="0.5"/>
                    </g>
                </svg>
