 <svg viewBox="0 0 64 64" xmlns="http://www.w3.org/2000/svg">
                    <path class="blob" d="M12 24C12 14 22 12 32 12C42 12 52 14 52 24C52 34 46 54 32 54C18 54 12 34 12 24Z" fill="#F7C948" opacity="0.4"/>
                    <g fill="none" stroke="currentColor" stroke-width="2.5" stroke-linecap="round" stroke-linejoin="round">
                        <path d="M14 32H50" />
                        <path d="M14 32C14 44 22 50 32 50C42 50 50 44 50 32" />
                        <path d="M24 24V16" opacity="0.6"/>
                        <path d="M32 24V12" />
                        <path d="M40 24V16" opacity="0.6"/>
                        <path d="M56 20V46C56 48 54 50 52 50" opacity="0.7"/>
                    </g>
                </svg>
