<svg viewBox="0 0 64 64" xmlns="http://www.w3.org/2000/svg">
                    <path class="blob" d="M10 30C10 18 22 14 34 14C46 14 56 22 52 38C48 54 34 56 18 52C6 48 10 42 10 30Z" fill="#627D98" opacity="0.4"/>
                    <g fill="none" stroke="currentColor" stroke-width="2.5" stroke-linecap="round" stroke-linejoin="round">
                        <!-- Микроавтобус -->
                        <path d="M10 44H50V32C50 24 46 22 38 22H20L10 32V44Z" />
                        ircle cx="20" cy="44" r="5" />
                        ircle cx="42" cy="44" r="5" />
                        <path d="M36 22V32H48" /> <!-- Окно -->
                        <!-- Пин локации -->
                        <path d="M52 16C52 16 58 16 58 20C58 24 52 30 52 30" fill="#D64545" stroke="none" opacity="0.8"/>
                        ircle cx="55" cy="20" r="2" fill="white"/>
                    </g>
                </svg>
