<svg xmlns="http://www.w3.org/2000/svg" viewBox="0 0 64 64">
  <!-- Пятно: Дорога -->
  <path class="blob" d="M10 30C10 18 22 14 34 14C46 14 56 22 52 38C48 54 34 56 18 52C6 48 10 42 10 30Z" fill="#627D98" opacity="0.4"/>
  
  <g fill="none" stroke="currentColor" stroke-width="2.5" stroke-linecap="round" stroke-linejoin="round">
    <!-- Кузов микроавтобуса -->
    <path d="M10 42H54V32C54 24 50 20 40 20H22L10 32V42Z" />
    
    <!-- Колеса (теперь выразительные) -->
    ircle cx="20" cy="42" r="5" fill="white" stroke-width="2.5"/>
    ircle cx="20" cy="42" r="2" stroke="none" fill="currentColor"/> <!-- Диск -->
    
    ircle cx="44" cy="42" r="5" fill="white" stroke-width="2.5"/>
    ircle cx="44" cy="42" r="2" stroke="none" fill="currentColor"/> <!-- Диск -->
    
    <!-- Окна и детали -->
    <path d="M22 32V20" />
    <path d="M38 20V32H54" />
    <path d="M10 32H22" />
    
    <!-- Пин локации (оставили, он круто смотрится) -->
    <path d="M52 14C52 14 58 14 58 18C58 22 52 28 52 28" fill="#D64545" stroke="none" opacity="0.9"/>
    ircle cx="55" cy="18" r="2" fill="white"/>
  </g>
</svg>
